<svg width="545" height="587" viewBox="0 0 545 587" fill="none" xmlns="http://www.w3.org/2000/svg">
<path d="M489 301.5C565 289 561.5 176.5 484.5 176.5C484.5 144 450 93.4997 393.5 106.5C384 -13.5004 197.5 -49.5003 153.5 93.9997C98.4999 77.4997 48.4999 118.5 51.4999 173.5C-25.5001 190.5 -8.5 297 58.4999 302L489 301.5Z" fill="#206C8D"/>
<path d="M273.5 112.999C295.5 110.999 293.5 138.5 280.5 144V182.5C280.512 182.888 304.17 159.997 316 148.5V132.5C316.5 124.5 328 124 327 133.5V153L280.5 201L281.5 247.5L310 219C310 219 309.924 216.56 310 215C298.5 211 300 181.999 322 187.999C344 193.999 333.5 217 321.5 217V226L283.5 269.5L284.5 322.5L299.5 301L332 268L333 225L344 212V138.5C344 132.5 355.5 132.5 355.5 138.5V160L370 147C373 144.5 380.5 152 377.5 156.5L355.5 175.5L356.5 215L344 231V262C344.01 262.391 360.669 247.498 369 240L370 185.5L390.5 165C381 155 399.5 126.999 418 144.999C436.5 162.999 410 182.5 399.5 174L381 192L381.5 244L347.5 276L384.5 275L407.5 251.5V226L430 205.5C420 196 439 169 456 184.499C473 199.999 448.5 218 437.5 213L418.5 231V249.5C418.436 254.225 417.623 256.551 414.5 260C404.201 271.11 396 281 386.5 286.5L335 288.5C315.5 309 301.99 316.683 297.5 333.5V354.5C320.726 332.858 335.641 317.89 346 315.5L377.5 314L463.5 227.5C455 220 471.5 194 489 209.499C506.5 224.999 483.5 245.5 472.5 237L384.5 326.5L347.5 327.5L330 344L402 342.5L481 264C477 260 486.5 241.773 499 252C511.5 262.227 498 275.5 491.5 272L434 328.5H482C482 316.5 515 309 515 334.5C515 360 481.001 354 481 340.5L421.5 341.5L407.5 354.5L371 355L389 370.5H414.5C415.5 362.5 438 357.5 438 376C438 394.5 416 392.5 416 381.5H384.5C372.395 371.599 366.064 365.672 355.5 354.5H336.5C315.736 363.242 307 369.925 299 386.5V412.5C299.641 444.221 311.159 453.985 342 464H414.5L439 476L465.5 477C475 477 472.5 488 465.5 488C457.503 489 435.519 488.001 435.5 488C425.019 483.944 420.134 481.565 414.5 477H386.5L422 505L439 506C441.5 501.5 453 502 453 511C453 520 439.5 521 439 515H421L415 512V540C415 545 405.5 544.5 405.5 540L404.5 505L370.5 480C350.128 480.445 339.801 479.609 324 475.5L345 496L369 502C376.703 508.242 380.111 512.3 384.5 520.5V547.5C388.5 547.5 390.5 561 380 561C369.5 561 370 547.5 375 547.5L373.5 524C370.18 518.129 367.835 516.14 363.5 513L346 509L350.5 535.5L357 544C359.5 547 358.5 551 355.5 551.5H348.5L338.5 541.5C337.5 524 336 515.5 329.5 504L297 474V489L304.5 502C307.5 508 309 510.5 315 516C319.015 518.797 320.493 521.015 322.5 525.5L324 556.5L337.5 570.5C341 574 332.5 581 329.5 577.5L312 559L311 532.5C297.127 518.136 290.628 509.314 280 493L280.5 535.5C285.5 549 290 555.5 299.5 564.5V582C299.5 588 288 588 288 582V568.5C280.663 562.415 277.674 557.727 274 547.5L264.5 561.5L265 582C265 587 253.5 587 253.5 582V559L267.5 534.5L267 491C256.761 508.906 250.595 517.514 237.5 531V561L222 577C217 582 208.5 573 213.5 568.5L226 556.5L227 524.5C228.5 517 235.5 514.5 241.5 506C245.5 500 246 497.5 250 492V476.5L220.5 502C213.5 517 211.5 525 210 542L201 552C197.5 556.5 188 547.5 192 544L198 535.5L203.5 508L182 515L175 525.5L174 547.5C178.5 549.5 178.5 561 168 561C157.5 561 159 547.5 164 547.5V521.5C165.581 514.432 169.649 510.096 180 502L204 493.5L225 475.5C216.717 478.65 211.517 479.904 201 481L175.5 480.5L145 504V539.5C145 544 134.5 544 134.5 539.5V512.5L127.5 516H107.5C107.499 519 95.0002 521.5 95 511.5C95 501.5 105.5 502.5 107.5 506L127.5 505C137.5 493.5 147 489 160 477.5H137L117 488H78.5C73.5 488 73.5 477 78.5 477H109L135.5 464H205C236.349 454.04 245.29 441.484 247.5 408V387.5C236.556 365.892 227.135 359.902 207.5 354.5H192L162.5 381.5H134.5C132 391 112 392.499 112 376.499C112 360.5 131 360.5 134.5 369.5H161.5L176.5 354.5H142L128.5 341.5L67 340.5C66.4994 351.5 35.5 360.999 35.5 334.999C35.5004 309 67.5 314.5 68 328.5L117.5 330L61.5 274C53.5 278.5 38.0001 263.999 48.5 252.999C59 242 74.5 254.5 69.5 265L147 343L219 344L200 326.5L165.5 326L78.5 237.5C60.5 243 45.5 225.499 59 209.999C72.5 194.5 95.4999 214 86.5 228.5L171.5 315H198L209.5 318L250.5 355.5L247.5 331.5L238 311L213.5 287H163C147.019 273.606 139.457 266.299 131 254L129.5 231L111.5 212C94.5 216 80 197.999 94.5 182.999C109 168 128.5 189 120.5 204L140.5 224.5L142 251.5L165.5 274H197C181.451 258.122 167.528 245.293 168 241.5V191.5L150.5 174C132.5 180.5 116 160.499 131 144.999C146 129.5 166.5 151.5 159 166L178 187V239.5L206 268L219 274L239 289.5V256L235 250L197 216L194 210.5L193 176L172.5 155.5C169.5 153 174.5 144.5 179.5 148.5L195 161V138.5C195.5 131.5 206 133.5 206 138.5V208.5L246.5 245C249.5 247.5 251.5 250.5 251.5 255V304L267.5 325V224L221 177L220 131C220 125 232 124.5 232 131V170L267.5 204.5V144C257 139.5 251.5 114.999 273.5 112.999ZM498 326C493.029 326 489 330.03 489 335C489 339.971 493.029 344 498 344C502.971 344 507 339.971 507 335C507 330.03 502.971 326 498 326ZM51.5 326.999C47.358 326.999 44.0002 330.357 44 334.499C44 338.641 47.3579 341.999 51.5 341.999C55.6421 341.999 59 338.641 59 334.499C58.9998 330.357 55.642 326.999 51.5 326.999ZM70.5 213C65.8056 213 62 216.806 62 221.5C62.0003 226.194 65.8057 230 70.5 230C75.1943 230 78.9997 226.194 79 221.5C79 216.806 75.1944 213 70.5 213ZM478.5 213C473.806 213 470 216.806 470 221.5C470 226.194 473.806 230 478.5 230C483.194 230 487 226.194 487 221.5C487 216.806 483.194 213 478.5 213ZM318.5 195C314.358 195 311 198.358 311 202.5C311 206.642 314.358 210 318.5 210C322.642 210 326 206.642 326 202.5C326 198.358 322.642 195 318.5 195ZM444.5 188C439.806 188 436 191.806 436 196.5C436 201.194 439.806 205 444.5 205C449.194 205 453 201.194 453 196.5C453 191.806 449.194 188 444.5 188ZM105.5 186C100.806 186 97 189.806 97 194.5C97.0003 199.194 100.806 203 105.5 203C110.194 203 114 199.194 114 194.5C114 189.806 110.194 186 105.5 186ZM406 146.999C400.477 146.999 396 151.477 396 156.999C396 162.522 400.477 166.999 406 166.999C411.523 166.999 416 162.522 416 156.999C416 151.477 411.523 146.999 406 146.999ZM142.5 148.999C137.806 148.999 134 152.805 134 157.499C134 162.194 137.806 165.999 142.5 165.999C147.194 165.999 151 162.194 151 157.499C151 152.805 147.194 148.999 142.5 148.999Z" fill="#483523"/>
<ellipse cx="151.5" cy="205" rx="8.5" ry="8" fill="#483523"/>
<ellipse cx="396.5" cy="205" rx="8.5" ry="8" fill="#483523"/>
</svg>
